<?xml version="1.0" encoding="utf-8"?>
<svg xmlns="http://www.w3.org/2000/svg" version="1.1" width="147" height="124">
<title>yacc.svg</title>
<line x1="97.794" y1="124.589" x2="147.794" y2="124.589" stroke="#648217" />
<line x1="147.794" y1="124.589" x2="147.794" y2="74.589" stroke="#648217" />
<line x1="147.794" y1="74.589" x2="97.794" y2="74.589" stroke="#648217" />
<line x1="97.794" y1="74.589" x2="97.794" y2="124.589" stroke="#648217" />
<line x1="57.794" y1="114.589" x2="56.794" y2="114.589" stroke="#020000" />
<line x1="56.794" y1="114.589" x2="55.794" y2="114.571" stroke="#040000" />
<line x1="55.794" y1="114.571" x2="54.795" y2="114.536" stroke="#060000" />
<line x1="54.795" y1="114.536" x2="53.796" y2="114.484" stroke="#080000" />
<line x1="53.796" y1="114.484" x2="52.799" y2="114.414" stroke="#0A0000" />
<line x1="52.799" y1="114.414" x2="51.803" y2="114.327" stroke="#0C0000" />
<line x1="51.803" y1="114.327" x2="50.808" y2="114.223" stroke="#0E0000" />
<line x1="50.808" y1="114.223" x2="49.816" y2="114.101" stroke="#100000" />
<line x1="49.816" y1="114.101" x2="48.825" y2="113.961" stroke="#120000" />
<line x1="48.825" y1="113.961" x2="47.838" y2="113.805" stroke="#140000" />
<line x1="47.838" y1="113.805" x2="46.853" y2="113.631" stroke="#160000" />
<line x1="46.853" y1="113.631" x2="45.871" y2="113.441" stroke="#180000" />
<line x1="45.871" y1="113.441" x2="44.893" y2="113.233" stroke="#1A0000" />
<line x1="44.893" y1="113.233" x2="43.919" y2="113.008" stroke="#1C0000" />
<line x1="43.919" y1="113.008" x2="42.948" y2="112.766" stroke="#1E0000" />
<line x1="42.948" y1="112.766" x2="41.982" y2="112.507" stroke="#200000" />
<line x1="41.982" y1="112.507" x2="41.021" y2="112.231" stroke="#220000" />
<line x1="41.021" y1="112.231" x2="40.065" y2="111.939" stroke="#240000" />
<line x1="40.065" y1="111.939" x2="39.114" y2="111.630" stroke="#260000" />
<line x1="39.114" y1="111.630" x2="38.168" y2="111.304" stroke="#280000" />
<line x1="38.168" y1="111.304" x2="37.229" y2="110.962" stroke="#2A0000" />
<line x1="37.229" y1="110.962" x2="36.295" y2="110.604" stroke="#2C0000" />
<line x1="36.295" y1="110.604" x2="35.368" y2="110.229" stroke="#2E0000" />
<line x1="35.368" y1="110.229" x2="34.447" y2="109.839" stroke="#300000" />
<line x1="34.447" y1="109.839" x2="33.534" y2="109.432" stroke="#320000" />
<line x1="33.534" y1="109.432" x2="32.628" y2="109.009" stroke="#340000" />
<line x1="32.628" y1="109.009" x2="31.729" y2="108.571" stroke="#360000" />
<line x1="31.729" y1="108.571" x2="30.838" y2="108.117" stroke="#380000" />
<line x1="30.838" y1="108.117" x2="29.955" y2="107.647" stroke="#3A0000" />
<line x1="29.955" y1="107.647" x2="29.080" y2="107.163" stroke="#3C0000" />
<line x1="29.080" y1="107.163" x2="28.214" y2="106.663" stroke="#3E0000" />
<line x1="28.214" y1="106.663" x2="27.357" y2="106.148" stroke="#400000" />
<line x1="27.357" y1="106.148" x2="26.509" y2="105.618" stroke="#420000" />
<line x1="26.509" y1="105.618" x2="25.670" y2="105.073" stroke="#440000" />
<line x1="25.670" y1="105.073" x2="24.841" y2="104.514" stroke="#460000" />
<line x1="24.841" y1="104.514" x2="24.022" y2="103.940" stroke="#480000" />
<line x1="24.022" y1="103.940" x2="23.213" y2="103.353" stroke="#4A0000" />
<line x1="23.213" y1="103.353" x2="22.414" y2="102.751" stroke="#4C0000" />
<line x1="22.414" y1="102.751" x2="21.626" y2="102.135" stroke="#4E0000" />
<line x1="21.626" y1="102.135" x2="20.849" y2="101.506" stroke="#500000" />
<line x1="20.849" y1="101.506" x2="20.083" y2="100.863" stroke="#520000" />
<line x1="20.083" y1="100.863" x2="19.329" y2="100.207" stroke="#540000" />
<line x1="19.329" y1="100.207" x2="18.585" y2="99.538" stroke="#560000" />
<line x1="18.585" y1="99.538" x2="17.854" y2="98.856" stroke="#580000" />
<line x1="17.854" y1="98.856" x2="17.135" y2="98.161" stroke="#5A0000" />
<line x1="17.135" y1="98.161" x2="16.428" y2="97.454" stroke="#5C0000" />
<line x1="16.428" y1="97.454" x2="15.733" y2="96.735" stroke="#5E0000" />
<line x1="15.733" y1="96.735" x2="15.051" y2="96.003" stroke="#600000" />
<line x1="15.051" y1="96.003" x2="14.382" y2="95.260" stroke="#620000" />
<line x1="14.382" y1="95.260" x2="13.726" y2="94.505" stroke="#640000" />
<line x1="13.726" y1="94.505" x2="13.083" y2="93.739" stroke="#660000" />
<line x1="13.083" y1="93.739" x2="12.454" y2="92.962" stroke="#680000" />
<line x1="12.454" y1="92.962" x2="11.838" y2="92.174" stroke="#6A0000" />
<line x1="11.838" y1="92.174" x2="11.236" y2="91.376" stroke="#6C0000" />
<line x1="11.236" y1="91.376" x2="10.648" y2="90.567" stroke="#6E0000" />
<line x1="10.648" y1="90.567" x2="10.075" y2="89.747" stroke="#700000" />
<line x1="10.075" y1="89.747" x2="9.516" y2="88.918" stroke="#720000" />
<line x1="9.516" y1="88.918" x2="8.971" y2="88.080" stroke="#740000" />
<line x1="8.971" y1="88.080" x2="8.441" y2="87.232" stroke="#760000" />
<line x1="8.441" y1="87.232" x2="7.926" y2="86.374" stroke="#780000" />
<line x1="7.926" y1="86.374" x2="7.426" y2="85.508" stroke="#7A0000" />
<line x1="7.426" y1="85.508" x2="6.941" y2="84.634" stroke="#7C0000" />
<line x1="6.941" y1="84.634" x2="6.472" y2="83.751" stroke="#7E0000" />
<line x1="6.472" y1="83.751" x2="6.018" y2="82.860" stroke="#800000" />
<line x1="6.018" y1="82.860" x2="5.579" y2="81.961" stroke="#820000" />
<line x1="5.579" y1="81.961" x2="5.157" y2="81.055" stroke="#840000" />
<line x1="5.157" y1="81.055" x2="4.750" y2="80.141" stroke="#860000" />
<line x1="4.750" y1="80.141" x2="4.359" y2="79.221" stroke="#880000" />
<line x1="4.359" y1="79.221" x2="3.985" y2="78.294" stroke="#8A0000" />
<line x1="3.985" y1="78.294" x2="3.626" y2="77.360" stroke="#8C0000" />
<line x1="3.626" y1="77.360" x2="3.284" y2="76.420" stroke="#8E0000" />
<line x1="3.284" y1="76.420" x2="2.959" y2="75.475" stroke="#900000" />
<line x1="2.959" y1="75.475" x2="2.650" y2="74.524" stroke="#920000" />
<line x1="2.650" y1="74.524" x2="2.357" y2="73.567" stroke="#940000" />
<line x1="2.357" y1="73.567" x2="2.082" y2="72.606" stroke="#960000" />
<line x1="2.082" y1="72.606" x2="1.823" y2="71.640" stroke="#980000" />
<line x1="1.823" y1="71.640" x2="1.581" y2="70.670" stroke="#9A0000" />
<line x1="1.581" y1="70.670" x2="1.356" y2="69.696" stroke="#9C0000" />
<line x1="1.356" y1="69.696" x2="1.148" y2="68.717" stroke="#9E0000" />
<line x1="1.148" y1="68.717" x2="0.957" y2="67.736" stroke="#A00000" />
<line x1="0.957" y1="67.736" x2="0.784" y2="66.751" stroke="#A20000" />
<line x1="0.784" y1="66.751" x2="0.627" y2="65.763" stroke="#A40000" />
<line x1="0.627" y1="65.763" x2="0.488" y2="64.773" stroke="#A60000" />
<line x1="0.488" y1="64.773" x2="0.366" y2="63.780" stroke="#A80000" />
<line x1="0.366" y1="63.780" x2="0.262" y2="62.786" stroke="#AA0000" />
<line x1="0.262" y1="62.786" x2="0.174" y2="61.790" stroke="#AC0000" />
<line x1="0.174" y1="61.790" x2="0.105" y2="60.792" stroke="#AE0000" />
<line x1="0.105" y1="60.792" x2="0.052" y2="59.794" stroke="#B00000" />
<line x1="0.052" y1="59.794" x2="0.017" y2="58.794" stroke="#B20000" />
<line x1="0.017" y1="58.794" x2="-0.000" y2="57.794" stroke="#B40000" />
<line x1="-0.000" y1="57.794" x2="0.000" y2="56.794" stroke="#B60000" />
<line x1="0.000" y1="56.794" x2="0.017" y2="55.794" stroke="#B80000" />
<line x1="0.017" y1="55.794" x2="0.052" y2="54.795" stroke="#BA0000" />
<line x1="0.052" y1="54.795" x2="0.105" y2="53.796" stroke="#BC0000" />
<line x1="0.105" y1="53.796" x2="0.174" y2="52.799" stroke="#BE0000" />
<line x1="0.174" y1="52.799" x2="0.262" y2="51.803" stroke="#C00000" />
<line x1="0.262" y1="51.803" x2="0.366" y2="50.808" stroke="#C20000" />
<line x1="0.366" y1="50.808" x2="0.488" y2="49.816" stroke="#C40000" />
<line x1="0.488" y1="49.816" x2="0.627" y2="48.825" stroke="#C60000" />
<line x1="0.627" y1="48.825" x2="0.784" y2="47.838" stroke="#C80000" />
<line x1="0.784" y1="47.838" x2="0.957" y2="46.853" stroke="#CA0000" />
<line x1="0.957" y1="46.853" x2="1.148" y2="45.871" stroke="#CC0000" />
<line x1="1.148" y1="45.871" x2="1.356" y2="44.893" stroke="#CE0000" />
<line x1="1.356" y1="44.893" x2="1.581" y2="43.919" stroke="#D00000" />
<line x1="1.581" y1="43.919" x2="1.823" y2="42.948" stroke="#D20000" />
<line x1="1.823" y1="42.948" x2="2.082" y2="41.982" stroke="#D40000" />
<line x1="2.082" y1="41.982" x2="2.357" y2="41.021" stroke="#D60000" />
<line x1="2.357" y1="41.021" x2="2.650" y2="40.065" stroke="#D80000" />
<line x1="2.650" y1="40.065" x2="2.959" y2="39.114" stroke="#DA0000" />
<line x1="2.959" y1="39.114" x2="3.284" y2="38.168" stroke="#DC0000" />
<line x1="3.284" y1="38.168" x2="3.626" y2="37.229" stroke="#DE0000" />
<line x1="3.626" y1="37.229" x2="3.985" y2="36.295" stroke="#E00000" />
<line x1="3.985" y1="36.295" x2="4.359" y2="35.368" stroke="#E20000" />
<line x1="4.359" y1="35.368" x2="4.750" y2="34.447" stroke="#E40000" />
<line x1="4.750" y1="34.447" x2="5.157" y2="33.534" stroke="#E60000" />
<line x1="5.157" y1="33.534" x2="5.579" y2="32.628" stroke="#E80000" />
<line x1="5.579" y1="32.628" x2="6.018" y2="31.729" stroke="#EA0000" />
<line x1="6.018" y1="31.729" x2="6.472" y2="30.838" stroke="#EC0000" />
<line x1="6.472" y1="30.838" x2="6.941" y2="29.955" stroke="#EE0000" />
<line x1="6.941" y1="29.955" x2="7.426" y2="29.080" stroke="#F00000" />
<line x1="7.426" y1="29.080" x2="7.926" y2="28.214" stroke="#F20000" />
<line x1="7.926" y1="28.214" x2="8.441" y2="27.357" stroke="#F40000" />
<line x1="8.441" y1="27.357" x2="8.971" y2="26.509" stroke="#F60000" />
<line x1="8.971" y1="26.509" x2="9.516" y2="25.670" stroke="#F80000" />
<line x1="9.516" y1="25.670" x2="10.075" y2="24.841" stroke="#FA0000" />
<line x1="10.075" y1="24.841" x2="10.648" y2="24.022" stroke="#FC0000" />
<line x1="10.648" y1="24.022" x2="11.236" y2="23.213" stroke="#FE0000" />
<line x1="11.236" y1="23.213" x2="11.838" y2="22.414" stroke="#1000000" />
<line x1="11.838" y1="22.414" x2="12.454" y2="21.626" stroke="#1020000" />
<line x1="12.454" y1="21.626" x2="13.083" y2="20.849" stroke="#1040000" />
<line x1="13.083" y1="20.849" x2="13.726" y2="20.083" stroke="#1060000" />
<line x1="13.726" y1="20.083" x2="14.382" y2="19.329" stroke="#1080000" />
<line x1="14.382" y1="19.329" x2="15.051" y2="18.585" stroke="#10A0000" />
<line x1="15.051" y1="18.585" x2="15.733" y2="17.854" stroke="#10C0000" />
<line x1="15.733" y1="17.854" x2="16.428" y2="17.135" stroke="#10E0000" />
<line x1="16.428" y1="17.135" x2="17.135" y2="16.428" stroke="#1100000" />
<line x1="17.135" y1="16.428" x2="17.854" y2="15.733" stroke="#1120000" />
<line x1="17.854" y1="15.733" x2="18.585" y2="15.051" stroke="#1140000" />
<line x1="18.585" y1="15.051" x2="19.329" y2="14.382" stroke="#1160000" />
<line x1="19.329" y1="14.382" x2="20.083" y2="13.726" stroke="#1180000" />
<line x1="20.083" y1="13.726" x2="20.849" y2="13.083" stroke="#11A0000" />
<line x1="20.849" y1="13.083" x2="21.626" y2="12.454" stroke="#11C0000" />
<line x1="21.626" y1="12.454" x2="22.414" y2="11.838" stroke="#11E0000" />
<line x1="22.414" y1="11.838" x2="23.213" y2="11.236" stroke="#1200000" />
<line x1="23.213" y1="11.236" x2="24.022" y2="10.648" stroke="#1220000" />
<line x1="24.022" y1="10.648" x2="24.841" y2="10.075" stroke="#1240000" />
<line x1="24.841" y1="10.075" x2="25.670" y2="9.516" stroke="#1260000" />
<line x1="25.670" y1="9.516" x2="26.509" y2="8.971" stroke="#1280000" />
<line x1="26.509" y1="8.971" x2="27.357" y2="8.441" stroke="#12A0000" />
<line x1="27.357" y1="8.441" x2="28.214" y2="7.926" stroke="#12C0000" />
<line x1="28.214" y1="7.926" x2="29.080" y2="7.426" stroke="#12E0000" />
<line x1="29.080" y1="7.426" x2="29.955" y2="6.941" stroke="#1300000" />
<line x1="29.955" y1="6.941" x2="30.838" y2="6.472" stroke="#1320000" />
<line x1="30.838" y1="6.472" x2="31.729" y2="6.018" stroke="#1340000" />
<line x1="31.729" y1="6.018" x2="32.628" y2="5.579" stroke="#1360000" />
<line x1="32.628" y1="5.579" x2="33.534" y2="5.157" stroke="#1380000" />
<line x1="33.534" y1="5.157" x2="34.447" y2="4.750" stroke="#13A0000" />
<line x1="34.447" y1="4.750" x2="35.368" y2="4.359" stroke="#13C0000" />
<line x1="35.368" y1="4.359" x2="36.295" y2="3.985" stroke="#13E0000" />
<line x1="36.295" y1="3.985" x2="37.229" y2="3.626" stroke="#1400000" />
<line x1="37.229" y1="3.626" x2="38.168" y2="3.284" stroke="#1420000" />
<line x1="38.168" y1="3.284" x2="39.114" y2="2.959" stroke="#1440000" />
<line x1="39.114" y1="2.959" x2="40.065" y2="2.650" stroke="#1460000" />
<line x1="40.065" y1="2.650" x2="41.021" y2="2.357" stroke="#1480000" />
<line x1="41.021" y1="2.357" x2="41.983" y2="2.082" stroke="#14A0000" />
<line x1="41.983" y1="2.082" x2="42.948" y2="1.823" stroke="#14C0000" />
<line x1="42.948" y1="1.823" x2="43.919" y2="1.581" stroke="#14E0000" />
<line x1="43.919" y1="1.581" x2="44.893" y2="1.356" stroke="#1500000" />
<line x1="44.893" y1="1.356" x2="45.871" y2="1.148" stroke="#1520000" />
<line x1="45.871" y1="1.148" x2="46.853" y2="0.957" stroke="#1540000" />
<line x1="46.853" y1="0.957" x2="47.838" y2="0.784" stroke="#1560000" />
<line x1="47.838" y1="0.784" x2="48.825" y2="0.627" stroke="#1580000" />
<line x1="48.825" y1="0.627" x2="49.816" y2="0.488" stroke="#15A0000" />
<line x1="49.816" y1="0.488" x2="50.808" y2="0.366" stroke="#15C0000" />
<line x1="50.808" y1="0.366" x2="51.803" y2="0.262" stroke="#15E0000" />
<line x1="51.803" y1="0.262" x2="52.799" y2="0.174" stroke="#1600000" />
<line x1="52.799" y1="0.174" x2="53.796" y2="0.105" stroke="#1620000" />
<line x1="53.796" y1="0.105" x2="54.795" y2="0.052" stroke="#1640000" />
<line x1="54.795" y1="0.052" x2="55.794" y2="0.017" stroke="#1660000" />
<line x1="55.794" y1="0.017" x2="56.794" y2="0.000" stroke="#1680000" />
<line x1="56.794" y1="0.000" x2="57.794" y2="0.000" stroke="#1660000" />
<line x1="57.794" y1="0.000" x2="58.794" y2="0.017" stroke="#1640000" />
<line x1="58.794" y1="0.017" x2="59.794" y2="0.052" stroke="#1620000" />
<line x1="59.794" y1="0.052" x2="60.792" y2="0.105" stroke="#1600000" />
<line x1="60.792" y1="0.105" x2="61.790" y2="0.174" stroke="#15E0000" />
<line x1="61.790" y1="0.174" x2="62.786" y2="0.262" stroke="#15C0000" />
<line x1="62.786" y1="0.262" x2="63.780" y2="0.366" stroke="#15A0000" />
<line x1="63.780" y1="0.366" x2="64.773" y2="0.488" stroke="#1580000" />
<line x1="64.773" y1="0.488" x2="65.763" y2="0.627" stroke="#1560000" />
<line x1="65.763" y1="0.627" x2="66.751" y2="0.784" stroke="#1540000" />
<line x1="66.751" y1="0.784" x2="67.736" y2="0.957" stroke="#1520000" />
<line x1="67.736" y1="0.957" x2="68.717" y2="1.148" stroke="#1500000" />
<line x1="68.717" y1="1.148" x2="69.696" y2="1.356" stroke="#14E0000" />
<line x1="69.696" y1="1.356" x2="70.670" y2="1.581" stroke="#14C0000" />
<line x1="70.670" y1="1.581" x2="71.640" y2="1.823" stroke="#14A0000" />
<line x1="71.640" y1="1.823" x2="72.606" y2="2.082" stroke="#1480000" />
<line x1="72.606" y1="2.082" x2="73.567" y2="2.357" stroke="#1460000" />
<line x1="73.567" y1="2.357" x2="74.524" y2="2.650" stroke="#1440000" />
<line x1="74.524" y1="2.650" x2="75.475" y2="2.959" stroke="#1420000" />
<line x1="75.475" y1="2.959" x2="76.420" y2="3.284" stroke="#1400000" />
<line x1="76.420" y1="3.284" x2="77.360" y2="3.626" stroke="#13E0000" />
<line x1="77.360" y1="3.626" x2="78.294" y2="3.985" stroke="#13C0000" />
<line x1="78.294" y1="3.985" x2="79.221" y2="4.359" stroke="#13A0000" />
<line x1="79.221" y1="4.359" x2="80.141" y2="4.750" stroke="#1380000" />
<line x1="80.141" y1="4.750" x2="81.055" y2="5.157" stroke="#1360000" />
<line x1="81.055" y1="5.157" x2="81.961" y2="5.579" stroke="#1340000" />
<line x1="81.961" y1="5.579" x2="82.860" y2="6.018" stroke="#1320000" />
<line x1="82.860" y1="6.018" x2="83.751" y2="6.472" stroke="#1300000" />
<line x1="83.751" y1="6.472" x2="84.634" y2="6.941" stroke="#12E0000" />
<line x1="84.634" y1="6.941" x2="85.508" y2="7.426" stroke="#12C0000" />
<line x1="85.508" y1="7.426" x2="86.375" y2="7.926" stroke="#12A0000" />
<line x1="86.375" y1="7.926" x2="87.232" y2="8.441" stroke="#1280000" />
<line x1="87.232" y1="8.441" x2="88.080" y2="8.971" stroke="#1260000" />
<line x1="88.080" y1="8.971" x2="88.918" y2="9.516" stroke="#1240000" />
<line x1="88.918" y1="9.516" x2="89.747" y2="10.075" stroke="#1220000" />
<line x1="89.747" y1="10.075" x2="90.567" y2="10.648" stroke="#1200000" />
<line x1="90.567" y1="10.648" x2="91.376" y2="11.236" stroke="#11E0000" />
<line x1="91.376" y1="11.236" x2="92.174" y2="11.838" stroke="#11C0000" />
<line x1="92.174" y1="11.838" x2="92.962" y2="12.454" stroke="#11A0000" />
<line x1="92.962" y1="12.454" x2="93.739" y2="13.083" stroke="#1180000" />
<line x1="93.739" y1="13.083" x2="94.505" y2="13.726" stroke="#1160000" />
<line x1="94.505" y1="13.726" x2="95.260" y2="14.382" stroke="#1140000" />
<line x1="95.260" y1="14.382" x2="96.003" y2="15.051" stroke="#1120000" />
<line x1="96.003" y1="15.051" x2="96.735" y2="15.733" stroke="#1100000" />
<line x1="96.735" y1="15.733" x2="97.454" y2="16.428" stroke="#10E0000" />
<line x1="97.454" y1="16.428" x2="98.161" y2="17.135" stroke="#10C0000" />
<line x1="98.161" y1="17.135" x2="98.856" y2="17.854" stroke="#10A0000" />
<line x1="98.856" y1="17.854" x2="99.538" y2="18.585" stroke="#1080000" />
<line x1="99.538" y1="18.585" x2="100.207" y2="19.329" stroke="#1060000" />
<line x1="100.207" y1="19.329" x2="100.863" y2="20.083" stroke="#1040000" />
<line x1="100.863" y1="20.083" x2="101.506" y2="20.849" stroke="#1020000" />
<line x1="101.506" y1="20.849" x2="102.135" y2="21.626" stroke="#1000000" />
<line x1="102.135" y1="21.626" x2="102.751" y2="22.414" stroke="#FE0000" />
<line x1="102.751" y1="22.414" x2="103.353" y2="23.213" stroke="#FC0000" />
<line x1="103.353" y1="23.213" x2="103.940" y2="24.022" stroke="#FA0000" />
<line x1="103.940" y1="24.022" x2="104.514" y2="24.841" stroke="#F80000" />
<line x1="104.514" y1="24.841" x2="105.073" y2="25.670" stroke="#F60000" />
<line x1="105.073" y1="25.670" x2="105.618" y2="26.509" stroke="#F40000" />
<line x1="105.618" y1="26.509" x2="106.148" y2="27.357" stroke="#F20000" />
<line x1="106.148" y1="27.357" x2="106.663" y2="28.214" stroke="#F00000" />
<line x1="106.663" y1="28.214" x2="107.163" y2="29.080" stroke="#EE0000" />
<line x1="107.163" y1="29.080" x2="107.647" y2="29.955" stroke="#EC0000" />
<line x1="107.647" y1="29.955" x2="108.117" y2="30.838" stroke="#EA0000" />
<line x1="108.117" y1="30.838" x2="108.571" y2="31.729" stroke="#E80000" />
<line x1="108.571" y1="31.729" x2="109.009" y2="32.628" stroke="#E60000" />
<line x1="109.009" y1="32.628" x2="109.432" y2="33.534" stroke="#E40000" />
<line x1="109.432" y1="33.534" x2="109.839" y2="34.447" stroke="#E20000" />
<line x1="109.839" y1="34.447" x2="110.229" y2="35.368" stroke="#E00000" />
<line x1="110.229" y1="35.368" x2="110.604" y2="36.295" stroke="#DE0000" />
<line x1="110.604" y1="36.295" x2="110.962" y2="37.229" stroke="#DC0000" />
<line x1="110.962" y1="37.229" x2="111.304" y2="38.168" stroke="#DA0000" />
<line x1="111.304" y1="38.168" x2="111.630" y2="39.114" stroke="#D80000" />
<line x1="111.630" y1="39.114" x2="111.939" y2="40.065" stroke="#D60000" />
<line x1="111.939" y1="40.065" x2="112.231" y2="41.021" stroke="#D40000" />
<line x1="112.231" y1="41.021" x2="112.507" y2="41.983" stroke="#D20000" />
<line x1="112.507" y1="41.983" x2="112.766" y2="42.948" stroke="#D00000" />
<line x1="112.766" y1="42.948" x2="113.008" y2="43.919" stroke="#CE0000" />
<line x1="113.008" y1="43.919" x2="113.233" y2="44.893" stroke="#CC0000" />
<line x1="113.233" y1="44.893" x2="113.441" y2="45.871" stroke="#CA0000" />
<line x1="113.441" y1="45.871" x2="113.631" y2="46.853" stroke="#C80000" />
<line x1="113.631" y1="46.853" x2="113.805" y2="47.838" stroke="#C60000" />
<line x1="113.805" y1="47.838" x2="113.961" y2="48.825" stroke="#C40000" />
<line x1="113.961" y1="48.825" x2="114.101" y2="49.816" stroke="#C20000" />
<line x1="114.101" y1="49.816" x2="114.223" y2="50.808" stroke="#C00000" />
<line x1="114.223" y1="50.808" x2="114.327" y2="51.803" stroke="#BE0000" />
<line x1="114.327" y1="51.803" x2="114.414" y2="52.799" stroke="#BC0000" />
<line x1="114.414" y1="52.799" x2="114.484" y2="53.796" stroke="#BA0000" />
<line x1="114.484" y1="53.796" x2="114.536" y2="54.795" stroke="#B80000" />
<line x1="114.536" y1="54.795" x2="114.571" y2="55.794" stroke="#B60000" />
<line x1="114.571" y1="55.794" x2="114.589" y2="56.794" stroke="#B40000" />
<line x1="114.589" y1="56.794" x2="114.589" y2="57.794" stroke="#B20000" />
<line x1="114.589" y1="57.794" x2="114.571" y2="58.794" stroke="#B00000" />
<line x1="114.571" y1="58.794" x2="114.536" y2="59.794" stroke="#AE0000" />
<line x1="114.536" y1="59.794" x2="114.484" y2="60.792" stroke="#AC0000" />
<line x1="114.484" y1="60.792" x2="114.414" y2="61.790" stroke="#AA0000" />
<line x1="114.414" y1="61.790" x2="114.327" y2="62.786" stroke="#A80000" />
<line x1="114.327" y1="62.786" x2="114.223" y2="63.780" stroke="#A60000" />
<line x1="114.223" y1="63.780" x2="114.101" y2="64.773" stroke="#A40000" />
<line x1="114.101" y1="64.773" x2="113.961" y2="65.763" stroke="#A20000" />
<line x1="113.961" y1="65.763" x2="113.805" y2="66.751" stroke="#A00000" />
<line x1="113.805" y1="66.751" x2="113.631" y2="67.736" stroke="#9E0000" />
<line x1="113.631" y1="67.736" x2="113.441" y2="68.717" stroke="#9C0000" />
<line x1="113.441" y1="68.717" x2="113.233" y2="69.696" stroke="#9A0000" />
<line x1="113.233" y1="69.696" x2="113.008" y2="70.670" stroke="#980000" />
<line x1="113.008" y1="70.670" x2="112.766" y2="71.640" stroke="#960000" />
<line x1="112.766" y1="71.640" x2="112.507" y2="72.606" stroke="#940000" />
<line x1="112.507" y1="72.606" x2="112.231" y2="73.567" stroke="#920000" />
<line x1="112.231" y1="73.567" x2="111.939" y2="74.524" stroke="#900000" />
<line x1="111.939" y1="74.524" x2="111.630" y2="75.475" stroke="#8E0000" />
<line x1="111.630" y1="75.475" x2="111.304" y2="76.420" stroke="#8C0000" />
<line x1="111.304" y1="76.420" x2="110.962" y2="77.360" stroke="#8A0000" />
<line x1="110.962" y1="77.360" x2="110.604" y2="78.294" stroke="#880000" />
<line x1="110.604" y1="78.294" x2="110.229" y2="79.221" stroke="#860000" />
<line x1="110.229" y1="79.221" x2="109.839" y2="80.141" stroke="#840000" />
<line x1="109.839" y1="80.141" x2="109.432" y2="81.055" stroke="#820000" />
<line x1="109.432" y1="81.055" x2="109.009" y2="81.961" stroke="#800000" />
<line x1="109.009" y1="81.961" x2="108.571" y2="82.860" stroke="#7E0000" />
<line x1="108.571" y1="82.860" x2="108.117" y2="83.751" stroke="#7C0000" />
<line x1="108.117" y1="83.751" x2="107.647" y2="84.634" stroke="#7A0000" />
<line x1="107.647" y1="84.634" x2="107.163" y2="85.508" stroke="#780000" />
<line x1="107.163" y1="85.508" x2="106.663" y2="86.375" stroke="#760000" />
<line x1="106.663" y1="86.375" x2="106.148" y2="87.232" stroke="#740000" />
<line x1="106.148" y1="87.232" x2="105.618" y2="88.080" stroke="#720000" />
<line x1="105.618" y1="88.080" x2="105.073" y2="88.918" stroke="#700000" />
<line x1="105.073" y1="88.918" x2="104.514" y2="89.747" stroke="#6E0000" />
<line x1="104.514" y1="89.747" x2="103.940" y2="90.567" stroke="#6C0000" />
<line x1="103.940" y1="90.567" x2="103.353" y2="91.376" stroke="#6A0000" />
<line x1="103.353" y1="91.376" x2="102.751" y2="92.174" stroke="#680000" />
<line x1="102.751" y1="92.174" x2="102.135" y2="92.962" stroke="#660000" />
<line x1="102.135" y1="92.962" x2="101.506" y2="93.739" stroke="#640000" />
<line x1="101.506" y1="93.739" x2="100.863" y2="94.505" stroke="#620000" />
<line x1="100.863" y1="94.505" x2="100.207" y2="95.260" stroke="#600000" />
<line x1="100.207" y1="95.260" x2="99.538" y2="96.003" stroke="#5E0000" />
<line x1="99.538" y1="96.003" x2="98.856" y2="96.735" stroke="#5C0000" />
<line x1="98.856" y1="96.735" x2="98.161" y2="97.454" stroke="#5A0000" />
<line x1="98.161" y1="97.454" x2="97.454" y2="98.161" stroke="#580000" />
<line x1="97.454" y1="98.161" x2="96.735" y2="98.856" stroke="#560000" />
<line x1="96.735" y1="98.856" x2="96.003" y2="99.538" stroke="#540000" />
<line x1="96.003" y1="99.538" x2="95.260" y2="100.207" stroke="#520000" />
<line x1="95.260" y1="100.207" x2="94.505" y2="100.863" stroke="#500000" />
<line x1="94.505" y1="100.863" x2="93.739" y2="101.506" stroke="#4E0000" />
<line x1="93.739" y1="101.506" x2="92.962" y2="102.135" stroke="#4C0000" />
<line x1="92.962" y1="102.135" x2="92.174" y2="102.751" stroke="#4A0000" />
<line x1="92.174" y1="102.751" x2="91.376" y2="103.353" stroke="#480000" />
<line x1="91.376" y1="103.353" x2="90.567" y2="103.940" stroke="#460000" />
<line x1="90.567" y1="103.940" x2="89.747" y2="104.514" stroke="#440000" />
<line x1="89.747" y1="104.514" x2="88.918" y2="105.073" stroke="#420000" />
<line x1="88.918" y1="105.073" x2="88.080" y2="105.618" stroke="#400000" />
<line x1="88.080" y1="105.618" x2="87.232" y2="106.148" stroke="#3E0000" />
<line x1="87.232" y1="106.148" x2="86.375" y2="106.663" stroke="#3C0000" />
<line x1="86.375" y1="106.663" x2="85.508" y2="107.163" stroke="#3A0000" />
<line x1="85.508" y1="107.163" x2="84.634" y2="107.647" stroke="#380000" />
<line x1="84.634" y1="107.647" x2="83.751" y2="108.117" stroke="#360000" />
<line x1="83.751" y1="108.117" x2="82.860" y2="108.571" stroke="#340000" />
<line x1="82.860" y1="108.571" x2="81.961" y2="109.009" stroke="#320000" />
<line x1="81.961" y1="109.009" x2="81.055" y2="109.432" stroke="#300000" />
<line x1="81.055" y1="109.432" x2="80.141" y2="109.839" stroke="#2E0000" />
<line x1="80.141" y1="109.839" x2="79.221" y2="110.229" stroke="#2C0000" />
<line x1="79.221" y1="110.229" x2="78.294" y2="110.604" stroke="#2A0000" />
<line x1="78.294" y1="110.604" x2="77.360" y2="110.962" stroke="#280000" />
<line x1="77.360" y1="110.962" x2="76.420" y2="111.304" stroke="#260000" />
<line x1="76.420" y1="111.304" x2="75.475" y2="111.630" stroke="#240000" />
<line x1="75.475" y1="111.630" x2="74.524" y2="111.939" stroke="#220000" />
<line x1="74.524" y1="111.939" x2="73.567" y2="112.231" stroke="#200000" />
<line x1="73.567" y1="112.231" x2="72.606" y2="112.507" stroke="#1E0000" />
<line x1="72.606" y1="112.507" x2="71.640" y2="112.766" stroke="#1C0000" />
<line x1="71.640" y1="112.766" x2="70.670" y2="113.008" stroke="#1A0000" />
<line x1="70.670" y1="113.008" x2="69.696" y2="113.233" stroke="#180000" />
<line x1="69.696" y1="113.233" x2="68.717" y2="113.441" stroke="#160000" />
<line x1="68.717" y1="113.441" x2="67.736" y2="113.631" stroke="#140000" />
<line x1="67.736" y1="113.631" x2="66.751" y2="113.805" stroke="#120000" />
<line x1="66.751" y1="113.805" x2="65.763" y2="113.961" stroke="#100000" />
<line x1="65.763" y1="113.961" x2="64.773" y2="114.101" stroke="#0E0000" />
<line x1="64.773" y1="114.101" x2="63.780" y2="114.223" stroke="#0C0000" />
<line x1="63.780" y1="114.223" x2="62.786" y2="114.327" stroke="#0A0000" />
<line x1="62.786" y1="114.327" x2="61.790" y2="114.414" stroke="#080000" />
<line x1="61.790" y1="114.414" x2="60.792" y2="114.484" stroke="#060000" />
<line x1="60.792" y1="114.484" x2="59.794" y2="114.536" stroke="#040000" />
<line x1="59.794" y1="114.536" x2="58.794" y2="114.571" stroke="#020000" />
<line x1="58.794" y1="114.571" x2="57.794" y2="114.589" stroke="#000000" />
</svg>
